<mxfile host="65bd71144e">
    <diagram id="b3SNbYyWBpBqOFpIT7Dp" name="Models">
        <mxGraphModel dx="847" dy="565" grid="1" gridSize="10" guides="1" tooltips="1" connect="1" arrows="1" fold="1" page="1" pageScale="1" pageWidth="850" pageHeight="1100" math="0" shadow="0">
            <root>
                <mxCell id="0"/>
                <mxCell id="1" parent="0"/>
                <mxCell id="R3_JmvENz5RsWma8yJZC-96" value="User" style="shape=table;startSize=30;container=1;collapsible=0;childLayout=tableLayout;fixedRows=1;rowLines=0;fontStyle=1;align=center;shadow=1;" parent="1" vertex="1">
                    <mxGeometry x="100" y="90" width="600" height="150" as="geometry"/>
                </mxCell>
                <mxCell id="R3_JmvENz5RsWma8yJZC-97" value="" style="shape=partialRectangle;html=1;whiteSpace=wrap;collapsible=0;dropTarget=0;pointerEvents=0;fillColor=none;top=0;left=0;bottom=1;right=0;points=[[0,0.5],[1,0.5]];portConstraint=eastwest;" parent="R3_JmvENz5RsWma8yJZC-96" vertex="1">
                    <mxGeometry y="30" width="600" height="30" as="geometry"/>
                </mxCell>
                <mxCell id="R3_JmvENz5RsWma8yJZC-98" value="ID" style="shape=partialRectangle;html=1;whiteSpace=wrap;connectable=0;fillColor=none;top=0;left=0;bottom=0;right=0;overflow=hidden;" parent="R3_JmvENz5RsWma8yJZC-97" vertex="1">
                    <mxGeometry width="40" height="30" as="geometry"/>
                </mxCell>
                <mxCell id="R3_JmvENz5RsWma8yJZC-99" value="User Name" style="shape=partialRectangle;html=1;whiteSpace=wrap;connectable=0;fillColor=none;top=0;left=0;bottom=0;right=0;align=left;spacingLeft=6;overflow=hidden;" parent="R3_JmvENz5RsWma8yJZC-97" vertex="1">
                    <mxGeometry x="40" width="140" height="30" as="geometry"/>
                </mxCell>
                <mxCell id="R3_JmvENz5RsWma8yJZC-106" value="Email" style="shape=partialRectangle;html=1;whiteSpace=wrap;connectable=0;fillColor=none;top=0;left=0;bottom=0;right=0;align=left;spacingLeft=6;overflow=hidden;" parent="R3_JmvENz5RsWma8yJZC-97" vertex="1">
                    <mxGeometry x="180" width="140" height="30" as="geometry"/>
                </mxCell>
                <mxCell id="R3_JmvENz5RsWma8yJZC-109" value="Password Hash" style="shape=partialRectangle;html=1;whiteSpace=wrap;connectable=0;fillColor=none;top=0;left=0;bottom=0;right=0;align=left;spacingLeft=6;overflow=hidden;" parent="R3_JmvENz5RsWma8yJZC-97" vertex="1">
                    <mxGeometry x="320" width="140" height="30" as="geometry"/>
                </mxCell>
                <mxCell id="R3_JmvENz5RsWma8yJZC-112" value="Permission ID" style="shape=partialRectangle;html=1;whiteSpace=wrap;connectable=0;fillColor=none;top=0;left=0;bottom=0;right=0;align=left;spacingLeft=6;overflow=hidden;" parent="R3_JmvENz5RsWma8yJZC-97" vertex="1">
                    <mxGeometry x="460" width="140" height="30" as="geometry"/>
                </mxCell>
                <mxCell id="R3_JmvENz5RsWma8yJZC-100" value="" style="shape=partialRectangle;html=1;whiteSpace=wrap;collapsible=0;dropTarget=0;pointerEvents=0;fillColor=none;top=0;left=0;bottom=0;right=0;points=[[0,0.5],[1,0.5]];portConstraint=eastwest;" parent="R3_JmvENz5RsWma8yJZC-96" vertex="1">
                    <mxGeometry y="60" width="600" height="30" as="geometry"/>
                </mxCell>
                <mxCell id="R3_JmvENz5RsWma8yJZC-101" value="1" style="shape=partialRectangle;html=1;whiteSpace=wrap;connectable=0;fillColor=none;top=0;left=0;bottom=0;right=0;overflow=hidden;" parent="R3_JmvENz5RsWma8yJZC-100" vertex="1">
                    <mxGeometry width="40" height="30" as="geometry"/>
                </mxCell>
                <mxCell id="R3_JmvENz5RsWma8yJZC-102" value="Test User" style="shape=partialRectangle;html=1;whiteSpace=wrap;connectable=0;fillColor=none;top=0;left=0;bottom=0;right=0;align=left;spacingLeft=6;overflow=hidden;" parent="R3_JmvENz5RsWma8yJZC-100" vertex="1">
                    <mxGeometry x="40" width="140" height="30" as="geometry"/>
                </mxCell>
                <mxCell id="R3_JmvENz5RsWma8yJZC-107" value="&lt;span style=&quot;text-align: center&quot;&gt;test@test.com&lt;/span&gt;" style="shape=partialRectangle;html=1;whiteSpace=wrap;connectable=0;fillColor=none;top=0;left=0;bottom=0;right=0;align=left;spacingLeft=6;overflow=hidden;" parent="R3_JmvENz5RsWma8yJZC-100" vertex="1">
                    <mxGeometry x="180" width="140" height="30" as="geometry"/>
                </mxCell>
                <mxCell id="R3_JmvENz5RsWma8yJZC-110" value="&lt;span style=&quot;text-align: center&quot;&gt;DKX&amp;gt;KDL.aksdjladf.DKLXJLSD&lt;br&gt;&lt;/span&gt;" style="shape=partialRectangle;html=1;whiteSpace=wrap;connectable=0;fillColor=none;top=0;left=0;bottom=0;right=0;align=left;spacingLeft=6;overflow=hidden;" parent="R3_JmvENz5RsWma8yJZC-100" vertex="1">
                    <mxGeometry x="320" width="140" height="30" as="geometry"/>
                </mxCell>
                <mxCell id="R3_JmvENz5RsWma8yJZC-113" value="&lt;span style=&quot;text-align: center&quot;&gt;1&lt;/span&gt;" style="shape=partialRectangle;html=1;whiteSpace=wrap;connectable=0;fillColor=none;top=0;left=0;bottom=0;right=0;align=left;spacingLeft=6;overflow=hidden;" parent="R3_JmvENz5RsWma8yJZC-100" vertex="1">
                    <mxGeometry x="460" width="140" height="30" as="geometry"/>
                </mxCell>
                <mxCell id="R3_JmvENz5RsWma8yJZC-103" value="" style="shape=partialRectangle;html=1;whiteSpace=wrap;collapsible=0;dropTarget=0;pointerEvents=0;fillColor=none;top=0;left=0;bottom=0;right=0;points=[[0,0.5],[1,0.5]];portConstraint=eastwest;" parent="R3_JmvENz5RsWma8yJZC-96" vertex="1">
                    <mxGeometry y="90" width="600" height="30" as="geometry"/>
                </mxCell>
                <mxCell id="R3_JmvENz5RsWma8yJZC-104" value="2" style="shape=partialRectangle;html=1;whiteSpace=wrap;connectable=0;fillColor=none;top=0;left=0;bottom=0;right=0;overflow=hidden;" parent="R3_JmvENz5RsWma8yJZC-103" vertex="1">
                    <mxGeometry width="40" height="30" as="geometry"/>
                </mxCell>
                <mxCell id="R3_JmvENz5RsWma8yJZC-105" value="&lt;span&gt;Test User 2&lt;/span&gt;" style="shape=partialRectangle;html=1;whiteSpace=wrap;connectable=0;fillColor=none;top=0;left=0;bottom=0;right=0;align=left;spacingLeft=6;overflow=hidden;" parent="R3_JmvENz5RsWma8yJZC-103" vertex="1">
                    <mxGeometry x="40" width="140" height="30" as="geometry"/>
                </mxCell>
                <mxCell id="R3_JmvENz5RsWma8yJZC-108" value="&lt;span style=&quot;text-align: center&quot;&gt;test2@test.com&lt;/span&gt;" style="shape=partialRectangle;html=1;whiteSpace=wrap;connectable=0;fillColor=none;top=0;left=0;bottom=0;right=0;align=left;spacingLeft=6;overflow=hidden;" parent="R3_JmvENz5RsWma8yJZC-103" vertex="1">
                    <mxGeometry x="180" width="140" height="30" as="geometry"/>
                </mxCell>
                <mxCell id="R3_JmvENz5RsWma8yJZC-111" value="&lt;span style=&quot;text-align: center&quot;&gt;DKX&amp;gt;KDKLJAL.DL.aksdjladf&lt;/span&gt;" style="shape=partialRectangle;html=1;whiteSpace=wrap;connectable=0;fillColor=none;top=0;left=0;bottom=0;right=0;align=left;spacingLeft=6;overflow=hidden;" parent="R3_JmvENz5RsWma8yJZC-103" vertex="1">
                    <mxGeometry x="320" width="140" height="30" as="geometry"/>
                </mxCell>
                <mxCell id="R3_JmvENz5RsWma8yJZC-114" value="2" style="shape=partialRectangle;html=1;whiteSpace=wrap;connectable=0;fillColor=none;top=0;left=0;bottom=0;right=0;align=left;spacingLeft=6;overflow=hidden;" parent="R3_JmvENz5RsWma8yJZC-103" vertex="1">
                    <mxGeometry x="460" width="140" height="30" as="geometry"/>
                </mxCell>
                <mxCell id="FHHNKkXrKHPqNX6xYLXa-1" value="Permission" style="shape=table;startSize=30;container=1;collapsible=0;childLayout=tableLayout;fixedRows=1;rowLines=0;fontStyle=1;align=center;shadow=1;" parent="1" vertex="1">
                    <mxGeometry x="100" y="310" width="460" height="180" as="geometry"/>
                </mxCell>
                <mxCell id="FHHNKkXrKHPqNX6xYLXa-2" value="" style="shape=partialRectangle;html=1;whiteSpace=wrap;collapsible=0;dropTarget=0;pointerEvents=0;fillColor=none;top=0;left=0;bottom=1;right=0;points=[[0,0.5],[1,0.5]];portConstraint=eastwest;" parent="FHHNKkXrKHPqNX6xYLXa-1" vertex="1">
                    <mxGeometry y="30" width="460" height="30" as="geometry"/>
                </mxCell>
                <mxCell id="FHHNKkXrKHPqNX6xYLXa-3" value="ID" style="shape=partialRectangle;html=1;whiteSpace=wrap;connectable=0;fillColor=none;top=0;left=0;bottom=0;right=0;overflow=hidden;" parent="FHHNKkXrKHPqNX6xYLXa-2" vertex="1">
                    <mxGeometry width="40" height="30" as="geometry"/>
                </mxCell>
                <mxCell id="FHHNKkXrKHPqNX6xYLXa-4" value="&lt;span style=&quot;text-align: center&quot;&gt;Article&lt;/span&gt;" style="shape=partialRectangle;html=1;whiteSpace=wrap;connectable=0;fillColor=none;top=0;left=0;bottom=0;right=0;align=left;spacingLeft=6;overflow=hidden;" parent="FHHNKkXrKHPqNX6xYLXa-2" vertex="1">
                    <mxGeometry x="40" width="140" height="30" as="geometry"/>
                </mxCell>
                <mxCell id="FHHNKkXrKHPqNX6xYLXa-5" value="Comment" style="shape=partialRectangle;html=1;whiteSpace=wrap;connectable=0;fillColor=none;top=0;left=0;bottom=0;right=0;align=left;spacingLeft=6;overflow=hidden;" parent="FHHNKkXrKHPqNX6xYLXa-2" vertex="1">
                    <mxGeometry x="180" width="140" height="30" as="geometry"/>
                </mxCell>
                <mxCell id="FHHNKkXrKHPqNX6xYLXa-6" value="&lt;span&gt;User ID&lt;/span&gt;" style="shape=partialRectangle;html=1;whiteSpace=wrap;connectable=0;fillColor=none;top=0;left=0;bottom=0;right=0;align=left;spacingLeft=6;overflow=hidden;" parent="FHHNKkXrKHPqNX6xYLXa-2" vertex="1">
                    <mxGeometry x="320" width="140" height="30" as="geometry"/>
                </mxCell>
                <mxCell id="FHHNKkXrKHPqNX6xYLXa-8" value="" style="shape=partialRectangle;html=1;whiteSpace=wrap;collapsible=0;dropTarget=0;pointerEvents=0;fillColor=none;top=0;left=0;bottom=0;right=0;points=[[0,0.5],[1,0.5]];portConstraint=eastwest;" parent="FHHNKkXrKHPqNX6xYLXa-1" vertex="1">
                    <mxGeometry y="60" width="460" height="30" as="geometry"/>
                </mxCell>
                <mxCell id="FHHNKkXrKHPqNX6xYLXa-9" value="1" style="shape=partialRectangle;html=1;whiteSpace=wrap;connectable=0;fillColor=none;top=0;left=0;bottom=0;right=0;overflow=hidden;" parent="FHHNKkXrKHPqNX6xYLXa-8" vertex="1">
                    <mxGeometry width="40" height="30" as="geometry"/>
                </mxCell>
                <mxCell id="FHHNKkXrKHPqNX6xYLXa-10" value="2" style="shape=partialRectangle;html=1;whiteSpace=wrap;connectable=0;fillColor=none;top=0;left=0;bottom=0;right=0;align=left;spacingLeft=6;overflow=hidden;" parent="FHHNKkXrKHPqNX6xYLXa-8" vertex="1">
                    <mxGeometry x="40" width="140" height="30" as="geometry"/>
                </mxCell>
                <mxCell id="FHHNKkXrKHPqNX6xYLXa-11" value="2" style="shape=partialRectangle;html=1;whiteSpace=wrap;connectable=0;fillColor=none;top=0;left=0;bottom=0;right=0;align=left;spacingLeft=6;overflow=hidden;" parent="FHHNKkXrKHPqNX6xYLXa-8" vertex="1">
                    <mxGeometry x="180" width="140" height="30" as="geometry"/>
                </mxCell>
                <mxCell id="FHHNKkXrKHPqNX6xYLXa-12" value="&lt;span style=&quot;text-align: center&quot;&gt;1&lt;br&gt;&lt;/span&gt;" style="shape=partialRectangle;html=1;whiteSpace=wrap;connectable=0;fillColor=none;top=0;left=0;bottom=0;right=0;align=left;spacingLeft=6;overflow=hidden;" parent="FHHNKkXrKHPqNX6xYLXa-8" vertex="1">
                    <mxGeometry x="320" width="140" height="30" as="geometry"/>
                </mxCell>
                <mxCell id="FHHNKkXrKHPqNX6xYLXa-14" value="" style="shape=partialRectangle;html=1;whiteSpace=wrap;collapsible=0;dropTarget=0;pointerEvents=0;fillColor=none;top=0;left=0;bottom=0;right=0;points=[[0,0.5],[1,0.5]];portConstraint=eastwest;" parent="FHHNKkXrKHPqNX6xYLXa-1" vertex="1">
                    <mxGeometry y="90" width="460" height="30" as="geometry"/>
                </mxCell>
                <mxCell id="FHHNKkXrKHPqNX6xYLXa-15" value="2" style="shape=partialRectangle;html=1;whiteSpace=wrap;connectable=0;fillColor=none;top=0;left=0;bottom=0;right=0;overflow=hidden;" parent="FHHNKkXrKHPqNX6xYLXa-14" vertex="1">
                    <mxGeometry width="40" height="30" as="geometry"/>
                </mxCell>
                <mxCell id="FHHNKkXrKHPqNX6xYLXa-16" value="1" style="shape=partialRectangle;html=1;whiteSpace=wrap;connectable=0;fillColor=none;top=0;left=0;bottom=0;right=0;align=left;spacingLeft=6;overflow=hidden;" parent="FHHNKkXrKHPqNX6xYLXa-14" vertex="1">
                    <mxGeometry x="40" width="140" height="30" as="geometry"/>
                </mxCell>
                <mxCell id="FHHNKkXrKHPqNX6xYLXa-17" value="1" style="shape=partialRectangle;html=1;whiteSpace=wrap;connectable=0;fillColor=none;top=0;left=0;bottom=0;right=0;align=left;spacingLeft=6;overflow=hidden;" parent="FHHNKkXrKHPqNX6xYLXa-14" vertex="1">
                    <mxGeometry x="180" width="140" height="30" as="geometry"/>
                </mxCell>
                <mxCell id="FHHNKkXrKHPqNX6xYLXa-18" value="2" style="shape=partialRectangle;html=1;whiteSpace=wrap;connectable=0;fillColor=none;top=0;left=0;bottom=0;right=0;align=left;spacingLeft=6;overflow=hidden;" parent="FHHNKkXrKHPqNX6xYLXa-14" vertex="1">
                    <mxGeometry x="320" width="140" height="30" as="geometry"/>
                </mxCell>
                <mxCell id="5gZJ2rJuKn_618kxMyL2-31" style="shape=partialRectangle;html=1;whiteSpace=wrap;collapsible=0;dropTarget=0;pointerEvents=0;fillColor=none;top=0;left=0;bottom=0;right=0;points=[[0,0.5],[1,0.5]];portConstraint=eastwest;" parent="FHHNKkXrKHPqNX6xYLXa-1" vertex="1">
                    <mxGeometry y="120" width="460" height="30" as="geometry"/>
                </mxCell>
                <mxCell id="5gZJ2rJuKn_618kxMyL2-32" value="3" style="shape=partialRectangle;html=1;whiteSpace=wrap;connectable=0;fillColor=none;top=0;left=0;bottom=0;right=0;overflow=hidden;" parent="5gZJ2rJuKn_618kxMyL2-31" vertex="1">
                    <mxGeometry width="40" height="30" as="geometry"/>
                </mxCell>
                <mxCell id="5gZJ2rJuKn_618kxMyL2-33" value="0" style="shape=partialRectangle;html=1;whiteSpace=wrap;connectable=0;fillColor=none;top=0;left=0;bottom=0;right=0;align=left;spacingLeft=6;overflow=hidden;" parent="5gZJ2rJuKn_618kxMyL2-31" vertex="1">
                    <mxGeometry x="40" width="140" height="30" as="geometry"/>
                </mxCell>
                <mxCell id="5gZJ2rJuKn_618kxMyL2-34" value="0" style="shape=partialRectangle;html=1;whiteSpace=wrap;connectable=0;fillColor=none;top=0;left=0;bottom=0;right=0;align=left;spacingLeft=6;overflow=hidden;" parent="5gZJ2rJuKn_618kxMyL2-31" vertex="1">
                    <mxGeometry x="180" width="140" height="30" as="geometry"/>
                </mxCell>
                <mxCell id="5gZJ2rJuKn_618kxMyL2-35" value="3" style="shape=partialRectangle;html=1;whiteSpace=wrap;connectable=0;fillColor=none;top=0;left=0;bottom=0;right=0;align=left;spacingLeft=6;overflow=hidden;" parent="5gZJ2rJuKn_618kxMyL2-31" vertex="1">
                    <mxGeometry x="320" width="140" height="30" as="geometry"/>
                </mxCell>
                <mxCell id="4U-wh4IxNT2rcE2iIlbe-1" style="edgeStyle=orthogonalEdgeStyle;rounded=0;orthogonalLoop=1;jettySize=auto;html=1;exitX=1;exitY=0.5;exitDx=0;exitDy=0;entryX=0;entryY=0.5;entryDx=0;entryDy=0;dashed=1;startArrow=none;startFill=0;" parent="1" source="R3_JmvENz5RsWma8yJZC-97" target="FHHNKkXrKHPqNX6xYLXa-2" edge="1">
                    <mxGeometry relative="1" as="geometry">
                        <Array as="points">
                            <mxPoint x="720" y="135"/>
                            <mxPoint x="720" y="290"/>
                            <mxPoint x="80" y="290"/>
                            <mxPoint x="80" y="355"/>
                        </Array>
                    </mxGeometry>
                </mxCell>
                <mxCell id="72DvhlmuSZONuNXrB7cw-1" value="Article" style="shape=table;startSize=30;container=1;collapsible=0;childLayout=tableLayout;fixedRows=1;rowLines=0;fontStyle=1;align=center;shadow=1;" parent="1" vertex="1">
                    <mxGeometry x="100" y="550" width="880" height="150" as="geometry"/>
                </mxCell>
                <mxCell id="72DvhlmuSZONuNXrB7cw-2" value="" style="shape=partialRectangle;html=1;whiteSpace=wrap;collapsible=0;dropTarget=0;pointerEvents=0;fillColor=none;top=0;left=0;bottom=1;right=0;points=[[0,0.5],[1,0.5]];portConstraint=eastwest;" parent="72DvhlmuSZONuNXrB7cw-1" vertex="1">
                    <mxGeometry y="30" width="880" height="30" as="geometry"/>
                </mxCell>
                <mxCell id="72DvhlmuSZONuNXrB7cw-3" value="ID" style="shape=partialRectangle;html=1;whiteSpace=wrap;connectable=0;fillColor=none;top=0;left=0;bottom=0;right=0;overflow=hidden;" parent="72DvhlmuSZONuNXrB7cw-2" vertex="1">
                    <mxGeometry width="40" height="30" as="geometry"/>
                </mxCell>
                <mxCell id="72DvhlmuSZONuNXrB7cw-4" value="&lt;span style=&quot;text-align: center&quot;&gt;Title&lt;/span&gt;" style="shape=partialRectangle;html=1;whiteSpace=wrap;connectable=0;fillColor=none;top=0;left=0;bottom=0;right=0;align=left;spacingLeft=6;overflow=hidden;" parent="72DvhlmuSZONuNXrB7cw-2" vertex="1">
                    <mxGeometry x="40" width="140" height="30" as="geometry"/>
                </mxCell>
                <mxCell id="72DvhlmuSZONuNXrB7cw-5" value="Abstract" style="shape=partialRectangle;html=1;whiteSpace=wrap;connectable=0;fillColor=none;top=0;left=0;bottom=0;right=0;align=left;spacingLeft=6;overflow=hidden;" parent="72DvhlmuSZONuNXrB7cw-2" vertex="1">
                    <mxGeometry x="180" width="140" height="30" as="geometry"/>
                </mxCell>
                <mxCell id="72DvhlmuSZONuNXrB7cw-6" value="&lt;span style=&quot;text-align: center&quot;&gt;Text&lt;/span&gt;" style="shape=partialRectangle;html=1;whiteSpace=wrap;connectable=0;fillColor=none;top=0;left=0;bottom=0;right=0;align=left;spacingLeft=6;overflow=hidden;" parent="72DvhlmuSZONuNXrB7cw-2" vertex="1">
                    <mxGeometry x="320" width="140" height="30" as="geometry"/>
                </mxCell>
                <mxCell id="72DvhlmuSZONuNXrB7cw-7" value="Create At" style="shape=partialRectangle;html=1;whiteSpace=wrap;connectable=0;fillColor=none;top=0;left=0;bottom=0;right=0;align=left;spacingLeft=6;overflow=hidden;" parent="72DvhlmuSZONuNXrB7cw-2" vertex="1">
                    <mxGeometry x="460" width="140" height="30" as="geometry"/>
                </mxCell>
                <mxCell id="72DvhlmuSZONuNXrB7cw-20" value="Update At" style="shape=partialRectangle;html=1;whiteSpace=wrap;connectable=0;fillColor=none;top=0;left=0;bottom=0;right=0;align=left;spacingLeft=6;overflow=hidden;" parent="72DvhlmuSZONuNXrB7cw-2" vertex="1">
                    <mxGeometry x="600" width="140" height="30" as="geometry"/>
                </mxCell>
                <mxCell id="5gZJ2rJuKn_618kxMyL2-23" value="User ID" style="shape=partialRectangle;html=1;whiteSpace=wrap;connectable=0;fillColor=none;top=0;left=0;bottom=0;right=0;align=left;spacingLeft=6;overflow=hidden;" parent="72DvhlmuSZONuNXrB7cw-2" vertex="1">
                    <mxGeometry x="740" width="140" height="30" as="geometry"/>
                </mxCell>
                <mxCell id="72DvhlmuSZONuNXrB7cw-8" value="" style="shape=partialRectangle;html=1;whiteSpace=wrap;collapsible=0;dropTarget=0;pointerEvents=0;fillColor=none;top=0;left=0;bottom=0;right=0;points=[[0,0.5],[1,0.5]];portConstraint=eastwest;" parent="72DvhlmuSZONuNXrB7cw-1" vertex="1">
                    <mxGeometry y="60" width="880" height="30" as="geometry"/>
                </mxCell>
                <mxCell id="72DvhlmuSZONuNXrB7cw-9" value="1" style="shape=partialRectangle;html=1;whiteSpace=wrap;connectable=0;fillColor=none;top=0;left=0;bottom=0;right=0;overflow=hidden;" parent="72DvhlmuSZONuNXrB7cw-8" vertex="1">
                    <mxGeometry width="40" height="30" as="geometry"/>
                </mxCell>
                <mxCell id="72DvhlmuSZONuNXrB7cw-10" value="Test" style="shape=partialRectangle;html=1;whiteSpace=wrap;connectable=0;fillColor=none;top=0;left=0;bottom=0;right=0;align=left;spacingLeft=6;overflow=hidden;" parent="72DvhlmuSZONuNXrB7cw-8" vertex="1">
                    <mxGeometry x="40" width="140" height="30" as="geometry"/>
                </mxCell>
                <mxCell id="72DvhlmuSZONuNXrB7cw-11" value="Test Abstract" style="shape=partialRectangle;html=1;whiteSpace=wrap;connectable=0;fillColor=none;top=0;left=0;bottom=0;right=0;align=left;spacingLeft=6;overflow=hidden;" parent="72DvhlmuSZONuNXrB7cw-8" vertex="1">
                    <mxGeometry x="180" width="140" height="30" as="geometry"/>
                </mxCell>
                <mxCell id="72DvhlmuSZONuNXrB7cw-12" value="&lt;span style=&quot;font-family: &amp;#34;open sans&amp;#34; , &amp;#34;arial&amp;#34; , sans-serif ; font-size: 14px ; text-align: justify ; background-color: rgb(255 , 255 , 255)&quot;&gt;&quot;Lorem ipsum dolor sit amet, consectetur adipiscing elit, sed do eiusmod tempor incididunt ut labore et dolore magna aliqua. Ut enim ad minim veniam, quis nostrud exercitation ullamco laboris nisi ut aliquip ex ea commodo consequat. Duis aute irure dolor in reprehenderit in voluptate velit esse cillum dolore eu fugiat nulla pariatur. Excepteur sint occaecat cupidatat non proident, sunt in culpa qui officia deserunt mollit anim id est laborum.&quot;&lt;/span&gt;&lt;span style=&quot;text-align: center&quot;&gt;&lt;br&gt;&lt;/span&gt;" style="shape=partialRectangle;html=1;whiteSpace=wrap;connectable=0;fillColor=none;top=0;left=0;bottom=0;right=0;align=left;spacingLeft=6;overflow=hidden;" parent="72DvhlmuSZONuNXrB7cw-8" vertex="1">
                    <mxGeometry x="320" width="140" height="30" as="geometry"/>
                </mxCell>
                <mxCell id="72DvhlmuSZONuNXrB7cw-13" value="2021-07-17 20:35:44" style="shape=partialRectangle;html=1;whiteSpace=wrap;connectable=0;fillColor=none;top=0;left=0;bottom=0;right=0;align=left;spacingLeft=6;overflow=hidden;" parent="72DvhlmuSZONuNXrB7cw-8" vertex="1">
                    <mxGeometry x="460" width="140" height="30" as="geometry"/>
                </mxCell>
                <mxCell id="72DvhlmuSZONuNXrB7cw-21" value="2021-07-18 10:33:21" style="shape=partialRectangle;html=1;whiteSpace=wrap;connectable=0;fillColor=none;top=0;left=0;bottom=0;right=0;align=left;spacingLeft=6;overflow=hidden;" parent="72DvhlmuSZONuNXrB7cw-8" vertex="1">
                    <mxGeometry x="600" width="140" height="30" as="geometry"/>
                </mxCell>
                <mxCell id="5gZJ2rJuKn_618kxMyL2-24" value="1" style="shape=partialRectangle;html=1;whiteSpace=wrap;connectable=0;fillColor=none;top=0;left=0;bottom=0;right=0;align=left;spacingLeft=6;overflow=hidden;" parent="72DvhlmuSZONuNXrB7cw-8" vertex="1">
                    <mxGeometry x="740" width="140" height="30" as="geometry"/>
                </mxCell>
                <mxCell id="72DvhlmuSZONuNXrB7cw-14" value="" style="shape=partialRectangle;html=1;whiteSpace=wrap;collapsible=0;dropTarget=0;pointerEvents=0;fillColor=none;top=0;left=0;bottom=0;right=0;points=[[0,0.5],[1,0.5]];portConstraint=eastwest;" parent="72DvhlmuSZONuNXrB7cw-1" vertex="1">
                    <mxGeometry y="90" width="880" height="30" as="geometry"/>
                </mxCell>
                <mxCell id="72DvhlmuSZONuNXrB7cw-15" value="2" style="shape=partialRectangle;html=1;whiteSpace=wrap;connectable=0;fillColor=none;top=0;left=0;bottom=0;right=0;overflow=hidden;" parent="72DvhlmuSZONuNXrB7cw-14" vertex="1">
                    <mxGeometry width="40" height="30" as="geometry"/>
                </mxCell>
                <mxCell id="72DvhlmuSZONuNXrB7cw-16" value="" style="shape=partialRectangle;html=1;whiteSpace=wrap;connectable=0;fillColor=none;top=0;left=0;bottom=0;right=0;align=left;spacingLeft=6;overflow=hidden;" parent="72DvhlmuSZONuNXrB7cw-14" vertex="1">
                    <mxGeometry x="40" width="140" height="30" as="geometry"/>
                </mxCell>
                <mxCell id="72DvhlmuSZONuNXrB7cw-17" value="" style="shape=partialRectangle;html=1;whiteSpace=wrap;connectable=0;fillColor=none;top=0;left=0;bottom=0;right=0;align=left;spacingLeft=6;overflow=hidden;" parent="72DvhlmuSZONuNXrB7cw-14" vertex="1">
                    <mxGeometry x="180" width="140" height="30" as="geometry"/>
                </mxCell>
                <mxCell id="72DvhlmuSZONuNXrB7cw-18" value="" style="shape=partialRectangle;html=1;whiteSpace=wrap;connectable=0;fillColor=none;top=0;left=0;bottom=0;right=0;align=left;spacingLeft=6;overflow=hidden;" parent="72DvhlmuSZONuNXrB7cw-14" vertex="1">
                    <mxGeometry x="320" width="140" height="30" as="geometry"/>
                </mxCell>
                <mxCell id="72DvhlmuSZONuNXrB7cw-19" value="" style="shape=partialRectangle;html=1;whiteSpace=wrap;connectable=0;fillColor=none;top=0;left=0;bottom=0;right=0;align=left;spacingLeft=6;overflow=hidden;" parent="72DvhlmuSZONuNXrB7cw-14" vertex="1">
                    <mxGeometry x="460" width="140" height="30" as="geometry"/>
                </mxCell>
                <mxCell id="72DvhlmuSZONuNXrB7cw-22" style="shape=partialRectangle;html=1;whiteSpace=wrap;connectable=0;fillColor=none;top=0;left=0;bottom=0;right=0;align=left;spacingLeft=6;overflow=hidden;" parent="72DvhlmuSZONuNXrB7cw-14" vertex="1">
                    <mxGeometry x="600" width="140" height="30" as="geometry"/>
                </mxCell>
                <mxCell id="5gZJ2rJuKn_618kxMyL2-25" style="shape=partialRectangle;html=1;whiteSpace=wrap;connectable=0;fillColor=none;top=0;left=0;bottom=0;right=0;align=left;spacingLeft=6;overflow=hidden;" parent="72DvhlmuSZONuNXrB7cw-14" vertex="1">
                    <mxGeometry x="740" width="140" height="30" as="geometry"/>
                </mxCell>
                <mxCell id="5gZJ2rJuKn_618kxMyL2-1" value="Comment" style="shape=table;startSize=30;container=1;collapsible=0;childLayout=tableLayout;fixedRows=1;rowLines=0;fontStyle=1;align=center;shadow=1;" parent="1" vertex="1">
                    <mxGeometry x="100" y="760" width="1020" height="150" as="geometry"/>
                </mxCell>
                <mxCell id="5gZJ2rJuKn_618kxMyL2-2" value="" style="shape=partialRectangle;html=1;whiteSpace=wrap;collapsible=0;dropTarget=0;pointerEvents=0;fillColor=none;top=0;left=0;bottom=1;right=0;points=[[0,0.5],[1,0.5]];portConstraint=eastwest;" parent="5gZJ2rJuKn_618kxMyL2-1" vertex="1">
                    <mxGeometry y="30" width="1020" height="30" as="geometry"/>
                </mxCell>
                <mxCell id="5gZJ2rJuKn_618kxMyL2-3" value="ID" style="shape=partialRectangle;html=1;whiteSpace=wrap;connectable=0;fillColor=none;top=0;left=0;bottom=0;right=0;overflow=hidden;" parent="5gZJ2rJuKn_618kxMyL2-2" vertex="1">
                    <mxGeometry width="40" height="30" as="geometry"/>
                </mxCell>
                <mxCell id="5gZJ2rJuKn_618kxMyL2-4" value="&lt;span style=&quot;text-align: center&quot;&gt;Title&lt;/span&gt;" style="shape=partialRectangle;html=1;whiteSpace=wrap;connectable=0;fillColor=none;top=0;left=0;bottom=0;right=0;align=left;spacingLeft=6;overflow=hidden;" parent="5gZJ2rJuKn_618kxMyL2-2" vertex="1">
                    <mxGeometry x="40" width="140" height="30" as="geometry"/>
                </mxCell>
                <mxCell id="5gZJ2rJuKn_618kxMyL2-5" value="Abstract" style="shape=partialRectangle;html=1;whiteSpace=wrap;connectable=0;fillColor=none;top=0;left=0;bottom=0;right=0;align=left;spacingLeft=6;overflow=hidden;" parent="5gZJ2rJuKn_618kxMyL2-2" vertex="1">
                    <mxGeometry x="180" width="140" height="30" as="geometry"/>
                </mxCell>
                <mxCell id="5gZJ2rJuKn_618kxMyL2-6" value="&lt;span style=&quot;text-align: center&quot;&gt;Text&lt;/span&gt;" style="shape=partialRectangle;html=1;whiteSpace=wrap;connectable=0;fillColor=none;top=0;left=0;bottom=0;right=0;align=left;spacingLeft=6;overflow=hidden;" parent="5gZJ2rJuKn_618kxMyL2-2" vertex="1">
                    <mxGeometry x="320" width="140" height="30" as="geometry"/>
                </mxCell>
                <mxCell id="5gZJ2rJuKn_618kxMyL2-7" value="Create At" style="shape=partialRectangle;html=1;whiteSpace=wrap;connectable=0;fillColor=none;top=0;left=0;bottom=0;right=0;align=left;spacingLeft=6;overflow=hidden;" parent="5gZJ2rJuKn_618kxMyL2-2" vertex="1">
                    <mxGeometry x="460" width="140" height="30" as="geometry"/>
                </mxCell>
                <mxCell id="5gZJ2rJuKn_618kxMyL2-8" value="Update At" style="shape=partialRectangle;html=1;whiteSpace=wrap;connectable=0;fillColor=none;top=0;left=0;bottom=0;right=0;align=left;spacingLeft=6;overflow=hidden;" parent="5gZJ2rJuKn_618kxMyL2-2" vertex="1">
                    <mxGeometry x="600" width="140" height="30" as="geometry"/>
                </mxCell>
                <mxCell id="5gZJ2rJuKn_618kxMyL2-26" value="User ID" style="shape=partialRectangle;html=1;whiteSpace=wrap;connectable=0;fillColor=none;top=0;left=0;bottom=0;right=0;align=left;spacingLeft=6;overflow=hidden;" parent="5gZJ2rJuKn_618kxMyL2-2" vertex="1">
                    <mxGeometry x="740" width="140" height="30" as="geometry"/>
                </mxCell>
                <mxCell id="5gZJ2rJuKn_618kxMyL2-39" value="Article ID" style="shape=partialRectangle;html=1;whiteSpace=wrap;connectable=0;fillColor=none;top=0;left=0;bottom=0;right=0;align=left;spacingLeft=6;overflow=hidden;" parent="5gZJ2rJuKn_618kxMyL2-2" vertex="1">
                    <mxGeometry x="880" width="140" height="30" as="geometry"/>
                </mxCell>
                <mxCell id="5gZJ2rJuKn_618kxMyL2-9" value="" style="shape=partialRectangle;html=1;whiteSpace=wrap;collapsible=0;dropTarget=0;pointerEvents=0;fillColor=none;top=0;left=0;bottom=0;right=0;points=[[0,0.5],[1,0.5]];portConstraint=eastwest;" parent="5gZJ2rJuKn_618kxMyL2-1" vertex="1">
                    <mxGeometry y="60" width="1020" height="30" as="geometry"/>
                </mxCell>
                <mxCell id="5gZJ2rJuKn_618kxMyL2-10" value="1" style="shape=partialRectangle;html=1;whiteSpace=wrap;connectable=0;fillColor=none;top=0;left=0;bottom=0;right=0;overflow=hidden;" parent="5gZJ2rJuKn_618kxMyL2-9" vertex="1">
                    <mxGeometry width="40" height="30" as="geometry"/>
                </mxCell>
                <mxCell id="5gZJ2rJuKn_618kxMyL2-11" value="Test" style="shape=partialRectangle;html=1;whiteSpace=wrap;connectable=0;fillColor=none;top=0;left=0;bottom=0;right=0;align=left;spacingLeft=6;overflow=hidden;" parent="5gZJ2rJuKn_618kxMyL2-9" vertex="1">
                    <mxGeometry x="40" width="140" height="30" as="geometry"/>
                </mxCell>
                <mxCell id="5gZJ2rJuKn_618kxMyL2-12" value="Test Abstract" style="shape=partialRectangle;html=1;whiteSpace=wrap;connectable=0;fillColor=none;top=0;left=0;bottom=0;right=0;align=left;spacingLeft=6;overflow=hidden;" parent="5gZJ2rJuKn_618kxMyL2-9" vertex="1">
                    <mxGeometry x="180" width="140" height="30" as="geometry"/>
                </mxCell>
                <mxCell id="5gZJ2rJuKn_618kxMyL2-13" value="&lt;span style=&quot;font-family: &amp;#34;open sans&amp;#34; , &amp;#34;arial&amp;#34; , sans-serif ; font-size: 14px ; text-align: justify ; background-color: rgb(255 , 255 , 255)&quot;&gt;&quot;Lorem ipsum dolor sit amet, consectetur adipiscing elit, sed do eiusmod tempor incididunt ut labore et dolore magna aliqua. Ut enim ad minim veniam, quis nostrud exercitation ullamco laboris nisi ut aliquip ex ea commodo consequat. Duis aute irure dolor in reprehenderit in voluptate velit esse cillum dolore eu fugiat nulla pariatur. Excepteur sint occaecat cupidatat non proident, sunt in culpa qui officia deserunt mollit anim id est laborum.&quot;&lt;/span&gt;&lt;span style=&quot;text-align: center&quot;&gt;&lt;br&gt;&lt;/span&gt;" style="shape=partialRectangle;html=1;whiteSpace=wrap;connectable=0;fillColor=none;top=0;left=0;bottom=0;right=0;align=left;spacingLeft=6;overflow=hidden;" parent="5gZJ2rJuKn_618kxMyL2-9" vertex="1">
                    <mxGeometry x="320" width="140" height="30" as="geometry"/>
                </mxCell>
                <mxCell id="5gZJ2rJuKn_618kxMyL2-14" value="2021-07-17 20:35:44" style="shape=partialRectangle;html=1;whiteSpace=wrap;connectable=0;fillColor=none;top=0;left=0;bottom=0;right=0;align=left;spacingLeft=6;overflow=hidden;" parent="5gZJ2rJuKn_618kxMyL2-9" vertex="1">
                    <mxGeometry x="460" width="140" height="30" as="geometry"/>
                </mxCell>
                <mxCell id="5gZJ2rJuKn_618kxMyL2-15" value="&lt;span&gt;2021-07-18 10:33:21&lt;/span&gt;" style="shape=partialRectangle;html=1;whiteSpace=wrap;connectable=0;fillColor=none;top=0;left=0;bottom=0;right=0;align=left;spacingLeft=6;overflow=hidden;" parent="5gZJ2rJuKn_618kxMyL2-9" vertex="1">
                    <mxGeometry x="600" width="140" height="30" as="geometry"/>
                </mxCell>
                <mxCell id="5gZJ2rJuKn_618kxMyL2-27" value="1" style="shape=partialRectangle;html=1;whiteSpace=wrap;connectable=0;fillColor=none;top=0;left=0;bottom=0;right=0;align=left;spacingLeft=6;overflow=hidden;" parent="5gZJ2rJuKn_618kxMyL2-9" vertex="1">
                    <mxGeometry x="740" width="140" height="30" as="geometry"/>
                </mxCell>
                <mxCell id="5gZJ2rJuKn_618kxMyL2-40" value="1" style="shape=partialRectangle;html=1;whiteSpace=wrap;connectable=0;fillColor=none;top=0;left=0;bottom=0;right=0;align=left;spacingLeft=6;overflow=hidden;" parent="5gZJ2rJuKn_618kxMyL2-9" vertex="1">
                    <mxGeometry x="880" width="140" height="30" as="geometry"/>
                </mxCell>
                <mxCell id="5gZJ2rJuKn_618kxMyL2-16" value="" style="shape=partialRectangle;html=1;whiteSpace=wrap;collapsible=0;dropTarget=0;pointerEvents=0;fillColor=none;top=0;left=0;bottom=0;right=0;points=[[0,0.5],[1,0.5]];portConstraint=eastwest;" parent="5gZJ2rJuKn_618kxMyL2-1" vertex="1">
                    <mxGeometry y="90" width="1020" height="30" as="geometry"/>
                </mxCell>
                <mxCell id="5gZJ2rJuKn_618kxMyL2-17" value="2" style="shape=partialRectangle;html=1;whiteSpace=wrap;connectable=0;fillColor=none;top=0;left=0;bottom=0;right=0;overflow=hidden;" parent="5gZJ2rJuKn_618kxMyL2-16" vertex="1">
                    <mxGeometry width="40" height="30" as="geometry"/>
                </mxCell>
                <mxCell id="5gZJ2rJuKn_618kxMyL2-18" value="" style="shape=partialRectangle;html=1;whiteSpace=wrap;connectable=0;fillColor=none;top=0;left=0;bottom=0;right=0;align=left;spacingLeft=6;overflow=hidden;" parent="5gZJ2rJuKn_618kxMyL2-16" vertex="1">
                    <mxGeometry x="40" width="140" height="30" as="geometry"/>
                </mxCell>
                <mxCell id="5gZJ2rJuKn_618kxMyL2-19" value="" style="shape=partialRectangle;html=1;whiteSpace=wrap;connectable=0;fillColor=none;top=0;left=0;bottom=0;right=0;align=left;spacingLeft=6;overflow=hidden;" parent="5gZJ2rJuKn_618kxMyL2-16" vertex="1">
                    <mxGeometry x="180" width="140" height="30" as="geometry"/>
                </mxCell>
                <mxCell id="5gZJ2rJuKn_618kxMyL2-20" value="" style="shape=partialRectangle;html=1;whiteSpace=wrap;connectable=0;fillColor=none;top=0;left=0;bottom=0;right=0;align=left;spacingLeft=6;overflow=hidden;" parent="5gZJ2rJuKn_618kxMyL2-16" vertex="1">
                    <mxGeometry x="320" width="140" height="30" as="geometry"/>
                </mxCell>
                <mxCell id="5gZJ2rJuKn_618kxMyL2-21" value="" style="shape=partialRectangle;html=1;whiteSpace=wrap;connectable=0;fillColor=none;top=0;left=0;bottom=0;right=0;align=left;spacingLeft=6;overflow=hidden;" parent="5gZJ2rJuKn_618kxMyL2-16" vertex="1">
                    <mxGeometry x="460" width="140" height="30" as="geometry"/>
                </mxCell>
                <mxCell id="5gZJ2rJuKn_618kxMyL2-22" style="shape=partialRectangle;html=1;whiteSpace=wrap;connectable=0;fillColor=none;top=0;left=0;bottom=0;right=0;align=left;spacingLeft=6;overflow=hidden;" parent="5gZJ2rJuKn_618kxMyL2-16" vertex="1">
                    <mxGeometry x="600" width="140" height="30" as="geometry"/>
                </mxCell>
                <mxCell id="5gZJ2rJuKn_618kxMyL2-28" style="shape=partialRectangle;html=1;whiteSpace=wrap;connectable=0;fillColor=none;top=0;left=0;bottom=0;right=0;align=left;spacingLeft=6;overflow=hidden;" parent="5gZJ2rJuKn_618kxMyL2-16" vertex="1">
                    <mxGeometry x="740" width="140" height="30" as="geometry"/>
                </mxCell>
                <mxCell id="5gZJ2rJuKn_618kxMyL2-41" style="shape=partialRectangle;html=1;whiteSpace=wrap;connectable=0;fillColor=none;top=0;left=0;bottom=0;right=0;align=left;spacingLeft=6;overflow=hidden;" parent="5gZJ2rJuKn_618kxMyL2-16" vertex="1">
                    <mxGeometry x="880" width="140" height="30" as="geometry"/>
                </mxCell>
                <mxCell id="5gZJ2rJuKn_618kxMyL2-30" style="edgeStyle=orthogonalEdgeStyle;rounded=0;orthogonalLoop=1;jettySize=auto;html=1;exitX=1;exitY=0.5;exitDx=0;exitDy=0;entryX=0;entryY=0.5;entryDx=0;entryDy=0;dashed=1;startArrow=none;startFill=0;" parent="1" source="FHHNKkXrKHPqNX6xYLXa-2" target="R3_JmvENz5RsWma8yJZC-97" edge="1">
                    <mxGeometry relative="1" as="geometry">
                        <Array as="points">
                            <mxPoint x="650" y="355"/>
                            <mxPoint x="650" y="260"/>
                            <mxPoint x="80" y="260"/>
                            <mxPoint x="80" y="135"/>
                        </Array>
                    </mxGeometry>
                </mxCell>
            </root>
        </mxGraphModel>
    </diagram>
</mxfile>